<?xml version="1.0" encoding="utf-8"?>
<!-- Generator: Adobe Illustrator 24.1.1, SVG Export Plug-In . SVG Version: 6.00 Build 0)  -->
<svg version="1.1" id="Layer_1" xmlns="http://www.w3.org/2000/svg" xmlns:xlink="http://www.w3.org/1999/xlink" x="0px" y="0px"
	 viewBox="0 0 24 24" style="enable-background:new 0 0 24 24;" xml:space="preserve">
<style type="text/css">
	.st0{fill:#555555;}
	.st1{fill:#FFFFFF;}
</style>
<path class="st0" d="M6,22c-0.6,0-1-0.2-1.4-0.6S4,20.5,4,20V4c0-0.6,0.2-1,0.6-1.4S5.4,2,6,2h8l6,6v12c0,0.5-0.2,1-0.6,1.4
	S18.5,22,18,22H6z M13,9V4H6v16h12V9H13z M6,4v5V4v16V4z M15.5,12.9l-1.4-1.4L12,13.6l-2.1-2.1l-1.4,1.4l2.1,2.1l-2.1,2.1l1.4,1.4
	l2.1-2.1l2.1,2.1l1.4-1.4L13.4,15L15.5,12.9z"/>
<g>
	<path class="st0" d="M18.6,24.5c-0.6,0-1.1-0.2-1.5-0.7l-4.4-4.4h4.4v-6h3v6h4.3l-4.4,4.4C19.7,24.3,19.2,24.5,18.6,24.5z"/>
	<path class="st1" d="M19.6,14v6h3.6l-3.5,3.5C19.4,23.8,19,24,18.6,24s-0.8-0.2-1.2-0.5L13.9,20h3.7v-6H19.6 M20.6,13h-1h-2h-1v1v5
		h-2.7h-2.4l1.7,1.7l3.5,3.5c0.5,0.5,1.2,0.8,1.9,0.8c0.7,0,1.4-0.3,1.8-0.8l3.5-3.5l1.7-1.7h-2.4h-2.6v-5V13L20.6,13z"/>
</g>
</svg>
